<mxfile host="app.diagrams.net" modified="2023-10-21T01:32:42.288Z" agent="Mozilla/5.0 (Windows NT 10.0; Win64; x64) AppleWebKit/537.36 (KHTML, like Gecko) Chrome/118.0.0.0 Safari/537.36" version="22.0.6" etag="D6jZrFG2vehsvzMMqx0M" type="github">
  <diagram name="PÃ¡gina-1" id="mFQ3oXKb78sL8lSxFI_V">
    <mxGraphModel>
      <root>
        <mxCell id="0" />
        <mxCell id="1" parent="0" />
      </root>
    </mxGraphModel>
  </diagram>
</mxfile>
